<?xml version="1.0" encoding="UTF-8" standalone="no"?><svg xmlns="http://www.w3.org/2000/svg" xmlns:xlink="http://www.w3.org/1999/xlink" contentStyleType="text/css" height="334px" preserveAspectRatio="none" style="width:297px;height:334px;background:#00000000;" version="1.1" viewBox="0 0 297 334" width="297px" zoomAndPan="magnify"><defs/><g><rect height="26.2969" id="_title" style="stroke:none;stroke-width:1.0;fill:none;" width="264" x="15" y="15"/><text fill="#000000" font-family="sans-serif" font-size="14" font-weight="bold" lengthAdjust="spacing" textLength="254" x="20" y="32.9951">How does the framework work?</text><ellipse cx="148.5" cy="57.2969" fill="#222222" rx="10" ry="10" style="stroke:#222222;stroke-width:1.0;"/><rect fill="#F1F1F1" height="33.9688" rx="12.5" ry="12.5" style="stroke:#181818;stroke-width:0.5;" width="142" x="77.5" y="87.2969"/><text fill="#000000" font-family="sans-serif" font-size="12" lengthAdjust="spacing" textLength="122" x="87.5" y="108.4355">Read modules JSON</text><rect fill="#F1F1F1" height="33.9688" rx="12.5" ry="12.5" style="stroke:#181818;stroke-width:0.5;" width="229" x="34" y="141.2656"/><text fill="#000000" font-family="sans-serif" font-size="12" lengthAdjust="spacing" textLength="209" x="44" y="162.4043">Transfrom JSON to Python models</text><rect fill="#F1F1F1" height="33.9688" rx="12.5" ry="12.5" style="stroke:#181818;stroke-width:0.5;" width="260" x="18.5" y="195.2344"/><text fill="#000000" font-family="sans-serif" font-size="12" lengthAdjust="spacing" textLength="240" x="28.5" y="216.373">Transform Python models to Bash files</text><rect fill="#F1F1F1" height="33.9688" rx="12.5" ry="12.5" style="stroke:#181818;stroke-width:0.5;" width="134" x="81.5" y="249.2031"/><text fill="#000000" font-family="sans-serif" font-size="12" lengthAdjust="spacing" textLength="114" x="91.5" y="270.3418">Execute Bash files</text><ellipse cx="148.5" cy="313.1719" fill="none" rx="10" ry="10" style="stroke:#222222;stroke-width:1.5;"/><line style="stroke:#222222;stroke-width:2.5;" x1="142.3128" x2="154.6872" y1="306.9847" y2="319.3591"/><line style="stroke:#222222;stroke-width:2.5;" x1="154.6872" x2="142.3128" y1="306.9847" y2="319.3591"/><line style="stroke:#181818;stroke-width:1.0;" x1="148.5" x2="148.5" y1="67.2969" y2="87.2969"/><polygon fill="#181818" points="144.5,77.2969,148.5,87.2969,152.5,77.2969,148.5,81.2969" style="stroke:#181818;stroke-width:1.0;"/><line style="stroke:#181818;stroke-width:1.0;" x1="148.5" x2="148.5" y1="121.2656" y2="141.2656"/><polygon fill="#181818" points="144.5,131.2656,148.5,141.2656,152.5,131.2656,148.5,135.2656" style="stroke:#181818;stroke-width:1.0;"/><line style="stroke:#181818;stroke-width:1.0;" x1="148.5" x2="148.5" y1="175.2344" y2="195.2344"/><polygon fill="#181818" points="144.5,185.2344,148.5,195.2344,152.5,185.2344,148.5,189.2344" style="stroke:#181818;stroke-width:1.0;"/><line style="stroke:#181818;stroke-width:1.0;" x1="148.5" x2="148.5" y1="229.2031" y2="249.2031"/><polygon fill="#181818" points="144.5,239.2031,148.5,249.2031,152.5,239.2031,148.5,243.2031" style="stroke:#181818;stroke-width:1.0;"/><line style="stroke:#181818;stroke-width:1.0;" x1="148.5" x2="148.5" y1="283.1719" y2="303.1719"/><polygon fill="#181818" points="144.5,293.1719,148.5,303.1719,152.5,293.1719,148.5,297.1719" style="stroke:#181818;stroke-width:1.0;"/><!--MD5=[f1015a76e1bab9fd774ca6cced222a49]
@startuml dotfiles_flow
start
title How does the framework work?

skinparam {
    BackgroundColor #00000000
}

:Read modules JSON;
:Transfrom JSON to Python models;
:Transform Python models to Bash files;
:Execute Bash files;
end
@enduml

PlantUML version 1.2022.7(Mon Aug 22 18:01:30 WEST 2022)
(GPL source distribution)
Java Runtime: OpenJDK Runtime Environment
JVM: OpenJDK 64-Bit Server VM
Default Encoding: UTF-8
Language: en
Country: US
--></g></svg>